<svg width="24" height="24" viewBox="0 0 24 24" fill="none" xmlns="http://www.w3.org/2000/svg">
<mask id="mask0_1_4579" style="mask-type:alpha" maskUnits="userSpaceOnUse" x="0" y="0" width="24" height="24">
<path d="M24 0H0V24H24V0Z" fill="white"/>
</mask>
<g mask="url(#mask0_1_4579)">
<path d="M10.2162 6.10501H8.10615C7.99615 6.10501 7.91615 6.18501 7.91615 6.29501V8.17501C7.91615 8.27501 7.99615 8.36501 8.10615 8.36501H10.2162C10.3261 8.36501 10.4061 8.27501 10.4061 8.17501V6.29501C10.4061 6.18501 10.3261 6.10501 10.2162 6.10501ZM13.1452 8.36501C13.2551 8.36501 13.3351 8.27501 13.3351 8.17501V6.29501C13.3351 6.18501 13.2551 6.10501 13.1452 6.10501H11.0351C10.9251 6.10501 10.8451 6.18501 10.8451 6.29501V8.17501C10.8451 8.27501 10.9251 8.36501 11.0351 8.36501H13.1452ZM4.33315 11.08C4.44315 11.08 4.52315 10.99 4.52315 10.89V9.01001C4.52315 8.96001 4.50315 8.91001 4.46315 8.87001C4.43315 8.84001 4.38315 8.82001 4.33315 8.82001H2.21315C2.11315 8.82001 2.03315 8.90001 2.03315 9.00001V10.89C2.03315 10.99 2.11315 11.08 2.22315 11.08H4.33315ZM8.10615 11.08H10.2162C10.3261 11.08 10.4061 10.99 10.4061 10.89V9.01001C10.4061 8.96001 10.3862 8.91001 10.3462 8.87001C10.3162 8.84001 10.2662 8.82001 10.2162 8.82001H8.09615C7.99615 8.82001 7.91615 8.90001 7.91615 9.00001V10.89C7.91615 10.99 7.99615 11.08 8.10615 11.08ZM13.1452 3.38901H11.0351C10.9251 3.38901 10.8451 3.46901 10.8451 3.57901V5.45901C10.8451 5.55901 10.9251 5.64901 11.0351 5.64901H13.1452C13.2551 5.64901 13.3351 5.56901 13.3351 5.45901V3.57901C13.3351 3.46901 13.2551 3.38901 13.1452 3.38901V3.38901ZM7.26115 8.36501C7.36115 8.36501 7.44115 8.27501 7.44115 8.17501V6.29501C7.44115 6.18501 7.36115 6.10501 7.26115 6.10501H5.14115C5.03115 6.10501 4.95115 6.18501 4.95115 6.29501V8.17501C4.95115 8.27501 5.03115 8.36501 5.14115 8.36501H7.26115ZM13.1452 11.08C13.2551 11.08 13.3351 11 13.3351 10.89V9.01001C13.3351 8.90001 13.2551 8.82001 13.1452 8.82001H11.0351C10.9251 8.82001 10.8451 8.90001 10.8451 9.00001V10.89C10.8451 10.99 10.9251 11.08 11.0351 11.08H13.1452ZM4.95115 9.01001V10.89C4.95115 10.99 5.03115 11.08 5.14115 11.08H7.26115C7.36115 11.08 7.44115 11 7.44115 10.89V9.01001C7.44115 8.96001 7.42115 8.91001 7.39115 8.87001C7.35115 8.84001 7.31115 8.82001 7.26115 8.82001H5.14115C5.03115 8.82001 4.95115 8.90001 4.95115 9.01001ZM16.0992 11.08C16.2092 11.08 16.2892 11 16.2892 10.89V9.01001C16.2892 8.90001 16.2092 8.82001 16.0992 8.82001H13.9791C13.8791 8.82001 13.7991 8.90001 13.7991 9.00001V10.89C13.7991 10.99 13.8791 11.08 13.9791 11.08H16.0992ZM17.9011 8.46201C17.6711 9.43201 17.8111 10.342 18.3011 11.122C17.7111 11.452 16.7511 11.532 16.5611 11.542H0.75114C0.34114 11.542 0.0011403 11.872 0.0011403 12.292C-0.0188597 13.672 0.22114 15.052 0.69114 16.352C1.24114 17.782 2.05114 18.832 3.10114 19.472C4.28114 20.202 6.20114 20.612 8.38114 20.612C9.36114 20.612 10.3411 20.522 11.3111 20.342C12.6511 20.102 13.9411 19.632 15.1311 18.952C16.1111 18.392 16.9911 17.672 17.7411 16.822C18.9911 15.402 19.7411 13.822 20.2911 12.422H20.5211C21.8911 12.422 22.7311 11.872 23.2011 11.412C23.5011 11.122 23.7511 10.762 23.9011 10.362L24.0011 10.082L23.7611 9.89201C23.7011 9.84201 23.0911 9.38201 21.8111 9.38201C21.4711 9.38201 21.1311 9.41201 20.8011 9.47201C20.5511 7.77201 19.1511 6.94201 19.0811 6.90201L18.7411 6.70201L18.5111 7.03201C18.2311 7.47201 18.0211 7.95201 17.9011 8.46201Z" fill="#1D63ED"/>
</g>
</svg>
