<svg width="24" height="24" viewBox="0 0 24 24" fill="none" xmlns="http://www.w3.org/2000/svg">
<mask id="mask0_1_5329" style="mask-type:alpha" maskUnits="userSpaceOnUse" x="0" y="0" width="24" height="24">
<path d="M24 0H0V24H24V0Z" fill="white"/>
</mask>
<g mask="url(#mask0_1_5329)">
<path d="M2.87796 12.379C2.82796 12.379 2.81796 12.349 2.83796 12.309L3.00796 12.019C3.02796 11.979 3.07796 11.949 3.11796 11.949H5.45796C5.50796 11.949 5.52796 11.979 5.52796 12.029L5.50796 12.309C5.50796 12.359 5.45796 12.389 5.41796 12.389L2.87796 12.379ZM1.8144 10.229C1.7644 10.229 1.7544 10.209 1.7744 10.169L2.0244 9.85899C2.0444 9.81899 2.1044 9.79899 2.1544 9.79899H6.3244C6.3644 9.79899 6.3844 9.83899 6.3544 9.86899L6.1544 10.169C6.1344 10.209 6.0744 10.239 6.0444 10.239L1.8144 10.229ZM0.0499626 11.304C-3.73721e-05 11.304 -0.0100374 11.284 0.00996263 11.244L0.259963 10.934C0.279963 10.894 0.339963 10.874 0.389963 10.874H5.70996C5.75996 10.874 5.77996 10.904 5.76996 10.944L5.67996 11.224C5.66996 11.274 5.61996 11.294 5.56996 11.294L0.0499626 11.304ZM12.1507 9.97658C11.4207 9.61658 10.7007 9.71658 10.0407 10.1466C9.24065 10.6666 8.83065 11.4266 8.85065 12.3666C8.86065 13.3066 9.50065 14.0766 10.4207 14.2066C11.2207 14.3066 11.8807 14.0266 12.4107 13.4366C12.5107 13.3066 12.6107 13.1666 12.7207 12.9966H10.4707C10.2207 12.9966 10.1707 12.8466 10.2507 12.6466C10.4007 12.2866 10.6807 11.6766 10.8407 11.3766C10.8907 11.2566 11.0107 11.1866 11.1407 11.1866H14.8968C14.6986 11.8146 14.646 12.4832 14.7593 13.1954C14.7813 13.3444 14.8125 13.4913 14.8524 13.6355C14.7143 13.913 14.5498 14.178 14.3606 14.4266C13.5206 15.5366 12.4206 16.2266 11.0306 16.4166C9.89064 16.5666 8.82064 16.3466 7.89064 15.6466C7.02064 14.9866 6.53064 14.1266 6.40064 13.0466C6.25064 11.7766 6.63064 10.6266 7.40064 9.62659C8.23064 8.53659 9.32064 7.84659 10.6706 7.60659C11.7706 7.40659 12.8206 7.53659 13.7606 8.17659C14.3806 8.58659 14.8306 9.14659 15.1206 9.82659C15.1906 9.92659 15.1406 9.98659 15.0006 10.0266V10.0166C14.2706 10.2066 13.7606 10.3466 13.0406 10.5366C12.8606 10.5766 12.8506 10.5966 12.7006 10.4166C12.5306 10.2166 12.4006 10.0866 12.1506 9.97659L12.1507 9.97658ZM14.8968 11.1866C15.0659 10.6507 15.3409 10.1442 15.7093 9.66539C16.5593 8.54539 17.5893 7.96539 18.9793 7.71539C20.1693 7.50539 21.2893 7.62539 22.3093 8.31539C23.2293 8.94539 23.7993 9.79539 23.9593 10.9154C24.1493 12.4954 23.6993 13.7854 22.6093 14.8854C21.8393 15.6654 20.8893 16.1554 19.8093 16.3754C19.4893 16.4354 19.1793 16.4454 18.8693 16.4854C17.8093 16.4554 16.8393 16.1554 16.0193 15.4554C15.4544 14.9819 15.0482 14.3428 14.8524 13.6355C15.0866 13.165 15.2452 12.6587 15.3207 12.1366C15.3707 11.8166 15.3707 11.5066 15.3907 11.1866L14.8968 11.1866ZM21.6173 11.3767C21.4073 10.2167 20.3473 9.56673 19.2373 9.82673C18.1473 10.0667 17.4473 10.7567 17.1873 11.8567C16.9773 12.7667 17.4273 13.6867 18.2673 14.0667C18.9073 14.3467 19.5473 14.3067 20.1673 13.9967C21.0873 13.5167 21.5973 12.7667 21.6573 11.7667H21.6473C21.6373 11.6067 21.6373 11.4967 21.6173 11.3767Z" fill="#e9ebdf"/>
</g>
</svg>
