<svg width="24" height="24" viewBox="0 0 24 24" fill="none" xmlns="http://www.w3.org/2000/svg">
<mask id="mask0_1_5825" style="mask-type:alpha" maskUnits="userSpaceOnUse" x="0" y="0" width="24" height="24">
<path d="M24 0H0V24H24V0Z" fill="white"/>
</mask>
<g mask="url(#mask0_1_5825)">
<path d="M14.378 15.99C14.358 15.99 14.378 15.99 14.378 15.99V15.99ZM14.248 5.05C14.248 5.05 14.268 5.05 14.248 5.05V5.05ZM5.12801 17.36C5.41801 17.87 5.73801 18.35 6.10801 18.81C6.25801 19 6.42801 19.17 6.59801 19.36C5.89801 21.36 6.70801 23.04 6.70801 23.04C8.85801 23.13 10.268 22.11 10.558 21.87L11.198 22.06C11.858 22.23 12.548 22.34 13.198 22.36H14.078C15.078 23.81 16.868 24 16.868 24C18.118 22.66 18.208 21.36 18.208 21.06V21.04V21V20.94C18.468 20.74 18.718 20.55 18.978 20.34C19.488 19.89 19.908 19.36 20.298 18.81C20.338 18.76 20.358 18.7 20.398 18.66C21.828 18.74 22.828 17.76 22.828 17.76C22.598 16.27 21.748 15.55 21.578 15.42L21.548 15.4L21.528 15.38L21.508 15.36C21.508 15.27 21.528 15.19 21.528 15.08C21.548 14.91 21.548 14.76 21.548 14.59V14.38V14.1V13.97C21.548 13.93 21.548 13.89 21.528 13.84L21.488 13.59C21.468 13.42 21.428 13.27 21.398 13.1C21.258 12.47 21.008 11.86 20.678 11.31C20.348 10.77 19.938 10.28 19.468 9.86C19.008 9.46 18.488 9.13 17.928 8.88C17.398 8.63 16.828 8.48 16.248 8.41C15.968 8.37 15.678 8.37 15.398 8.37H15.268H14.968C14.818 8.39 14.678 8.41 14.548 8.43C13.968 8.54 13.438 8.75 12.968 9.03C12.498 9.31 12.098 9.67 11.758 10.07C11.428 10.46 11.168 10.9 10.988 11.37C10.818 11.82 10.708 12.31 10.688 12.76V13.27C10.688 13.33 10.688 13.37 10.708 13.44C10.778 14.09 11.018 14.72 11.418 15.25C11.668 15.59 11.948 15.84 12.268 16.05C12.588 16.27 12.908 16.42 13.248 16.52C13.588 16.63 13.908 16.67 14.208 16.65H14.648C14.698 16.65 14.738 16.63 14.758 16.63C14.798 16.63 14.818 16.61 14.858 16.61C14.928 16.59 15.008 16.57 15.078 16.55C15.208 16.5 15.328 16.44 15.458 16.4C15.588 16.33 15.688 16.27 15.778 16.2C15.798 16.18 15.838 16.16 15.868 16.14C15.918 16.1 15.948 16.04 15.958 15.98C15.968 15.92 15.948 15.85 15.908 15.8C15.818 15.72 15.698 15.69 15.588 15.74C15.568 15.76 15.548 15.76 15.498 15.78C15.418 15.82 15.318 15.86 15.228 15.88C15.118 15.91 15.008 15.95 14.908 15.97C14.838 15.97 14.798 15.99 14.738 15.99H14.378H14.288C14.268 15.99 14.228 15.99 14.208 15.97C13.968 15.93 13.718 15.86 13.478 15.76C13.248 15.65 13.008 15.5 12.818 15.31C12.608 15.12 12.438 14.9 12.288 14.65C12.138 14.39 12.058 14.12 12.008 13.84C11.988 13.69 11.968 13.54 11.988 13.39V13.27V13.22V13.16C11.988 13.07 12.008 13.01 12.028 12.93C12.148 12.27 12.468 11.66 12.948 11.2C13.078 11.07 13.208 10.97 13.358 10.88C13.498 10.77 13.648 10.69 13.798 10.62C13.948 10.56 14.118 10.5 14.288 10.45C14.458 10.41 14.628 10.37 14.798 10.37C14.888 10.37 14.968 10.35 15.058 10.35H15.228H15.318C15.878 10.4 16.428 10.56 16.928 10.84C17.618 11.22 18.188 11.8 18.528 12.5C18.698 12.84 18.828 13.22 18.888 13.63C18.908 13.73 18.908 13.82 18.938 13.93V14.48C18.938 14.59 18.908 14.69 18.908 14.8C18.888 14.91 18.888 15.01 18.868 15.12L18.808 15.44C18.788 15.54 18.678 15.84 18.618 16.06C18.548 16.27 18.248 16.84 17.998 17.18C17.478 17.89 16.788 18.46 15.998 18.82C15.588 19 15.188 19.14 14.758 19.21C14.548 19.25 14.338 19.27 14.118 19.27H13.798H13.778C13.678 19.27 13.548 19.27 13.438 19.25C12.968 19.21 12.528 19.12 12.078 18.99C11.628 18.87 11.208 18.7 10.798 18.48C9.98801 18.05 9.26801 17.45 8.68801 16.74C8.41801 16.38 8.15801 15.99 7.94801 15.59C7.72801 15.18 7.58801 14.76 7.45801 14.33C7.32801 13.9 7.25801 13.46 7.23801 13.01V12.52V12.35C7.23801 12.14 7.26801 11.91 7.30801 11.67C7.32801 11.44 7.36801 11.22 7.40801 10.99C7.45801 10.76 7.51801 10.54 7.57801 10.31C7.64801 10.07 7.85801 9.44 8.04801 9.03C8.43801 8.22 8.92801 7.5 9.49801 6.92C9.64801 6.77 9.79801 6.65 9.96801 6.52C10.028 6.45 10.178 6.33 10.348 6.22C10.518 6.11 10.688 6.01 10.888 5.92C10.968 5.88 11.058 5.84 11.158 5.79C11.208 5.77 11.248 5.75 11.308 5.73C11.348 5.71 11.398 5.69 11.458 5.67C11.648 5.58 11.838 5.52 12.038 5.45C12.078 5.43 12.138 5.43 12.178 5.41C12.228 5.39 12.288 5.39 12.328 5.37C12.378 5.34 12.518 5.32 12.628 5.28C12.668 5.26 12.738 5.26 12.778 5.24C12.818 5.24 12.888 5.22 12.928 5.22C12.968 5.22 13.028 5.2 13.078 5.2L13.248 5.15C13.288 5.15 13.348 5.13 13.398 5.13C13.458 5.13 13.498 5.11 13.568 5.11C13.608 5.11 13.688 5.09 13.738 5.09C13.778 5.09 13.798 5.09 13.838 5.07H13.988C14.058 5.07 14.098 5.07 14.158 5.05H14.248H15.038C15.418 5.07 15.798 5.11 16.158 5.18C16.878 5.3 17.558 5.53 18.208 5.86C18.808 6.15 19.358 6.51 19.868 6.94C19.888 6.96 19.928 6.99 19.948 7.03C19.978 7.05 20.018 7.07 20.038 7.11C20.098 7.16 20.148 7.22 20.208 7.26C20.268 7.31 20.318 7.37 20.378 7.41C20.418 7.48 20.488 7.52 20.528 7.58C21.098 8.17 21.568 8.83 21.928 9.56C21.958 9.58 21.958 9.6 21.978 9.65C21.998 9.67 21.998 9.69 22.018 9.73C22.038 9.77 22.058 9.84 22.108 9.88C22.128 9.92 22.148 9.99 22.168 10.03C22.188 10.07 22.208 10.14 22.228 10.18C22.318 10.37 22.378 10.56 22.448 10.75C22.548 11.05 22.618 11.31 22.678 11.52C22.698 11.61 22.778 11.67 22.868 11.67C22.978 11.67 23.038 11.58 23.038 11.48C23.018 11.22 23.018 10.95 22.998 10.63C22.958 10.22 22.888 9.75 22.768 9.24C22.638 8.73 22.428 8.18 22.148 7.58C21.848 7.01 21.488 6.39 20.998 5.81C20.808 5.58 20.588 5.37 20.378 5.13C20.718 3.79 19.978 2.62 19.978 2.62C18.678 2.53 17.868 3.02 17.568 3.24C17.528 3.22 17.458 3.19 17.418 3.17C17.208 3.09 16.968 3 16.738 2.92C16.508 2.85 16.268 2.77 16.038 2.72C15.798 2.66 15.548 2.62 15.288 2.58C15.248 2.58 15.208 2.55 15.158 2.55C14.608 0.77 12.988 0 12.988 0C11.138 1.19 10.778 2.79 10.778 2.79C10.778 2.79 10.778 2.83 10.758 2.88C10.648 2.9 10.558 2.94 10.458 2.96C10.328 3 10.178 3.05 10.048 3.11C9.91801 3.17 9.77801 3.22 9.64801 3.28C9.36801 3.41 9.11801 3.54 8.83801 3.68C8.57801 3.83 8.32801 3.98 8.08801 4.15C8.04801 4.13 8.02801 4.11 8.02801 4.11C5.53801 3.15 3.31801 4.3 3.31801 4.3C3.12801 6.96 4.32801 8.63 4.55801 8.92C4.49801 9.09 4.44801 9.24 4.38801 9.41C4.19801 10.02 4.05801 10.64 3.97801 11.27C3.95801 11.35 3.95801 11.46 3.93801 11.54C1.63801 12.67 0.958008 15.01 0.958008 15.01C2.87801 17.23 5.12801 17.36 5.12801 17.36Z" fill="#e9ebdf"/>
</g>
</svg>
