<svg xmlns="http://www.w3.org/2000/svg" viewBox="0 0 400 400" xml:space="preserve"><path fill="#8EC0D6" d="M249.889 101.986c-15.057-7.428-31.96-11.715-49.88-11.715-28.253 0-54.021 10.433-73.838 27.554-24.005 20.738-39.245 51.317-39.245 85.522 0 38.31 19.107 72.117 48.258 92.575 18.372 12.881 40.687 20.499 64.825 20.499 21.051 0 40.693-5.861 57.563-15.877 33.192-19.701 55.504-55.798 55.504-97.197.001-44.514-25.797-82.909-63.187-101.361z"/><path fill="#A9D2E0" d="M160.719 295.923c-29.151-20.459-48.261-54.265-48.261-92.575 0-34.205 15.24-64.785 39.245-85.522 16.841-14.552 38.007-24.198 61.318-26.789a111.86 111.86 0 0 0-13.013-.765c-28.253 0-54.021 10.433-73.838 27.554-24.005 20.738-39.245 51.317-39.245 85.522 0 38.31 19.107 72.117 48.258 92.575 18.372 12.881 40.687 20.499 64.825 20.499 4.348 0 8.62-.301 12.836-.792-19.246-2.173-37.026-9.12-52.125-19.707z"/><path fill="#9AE8CE" d="M313.077 203.368c0-44.522-25.798-82.917-63.188-101.368 4.523 24.516 7.763 53.166-5.577 66.174-36.078 35.173-11.27 49.172 1.229 71.826 13.27 24.048 12.44 40.63 12.032 60.567 33.191-19.71 55.504-55.809 55.504-97.199zM146.209 239.735c-9.876-16.451-18.188-32.328 11.435-72.703 13.302-18.142-9.536-33.101-31.473-49.191-24.005 20.735-39.245 51.316-39.245 85.528 0 38.316 19.107 72.106 48.258 92.565 18.319-15.719 18.425-43.85 11.025-56.199z"/><path fill="#AEF4DB" d="M145.308 282.931c-20.289-20.428-32.85-48.52-32.85-79.583 0-28.665 10.732-54.761 28.33-74.678-4.635-3.585-9.639-7.174-14.617-10.827-24.005 20.732-39.239 51.308-39.245 85.515.006 38.313 19.107 72.112 48.258 92.572 0 .003.009.003.009.003 4.369-3.751 7.678-8.221 10.115-13.002z"/><path fill="#8EC0D6" d="M117.35 94.43c0 5.994-4.859 10.852-10.853 10.852s-10.85-4.858-10.85-10.852c0-5.994 4.857-10.852 10.85-10.852 5.994.001 10.853 4.859 10.853 10.852z"/><path fill="#A9D2E0" d="M105.265 94.43c0-4.258 2.473-7.904 6.041-9.682-1.453-.724-3.072-1.17-4.809-1.17-5.994 0-10.85 4.858-10.85 10.852 0 5.994 4.857 10.852 10.85 10.852 1.737 0 3.356-.446 4.809-1.17-3.568-1.778-6.041-5.423-6.041-9.682z"/><path fill="#9AE8CE" d="M93.142 121.251a7.071 7.071 0 1 1-14.139-.001 7.071 7.071 0 0 1 14.139.001zM321 282.791a7.071 7.071 0 1 1-14.139-.001 7.071 7.071 0 0 1 14.139.001z"/><path fill="#AEF4DB" d="M312.595 282.791a7.06 7.06 0 0 1 4.203-6.453 7.053 7.053 0 0 0-2.868-.617 7.071 7.071 0 1 0 0 14.142 7.07 7.07 0 0 0 2.868-.617c-2.475-1.104-4.203-3.574-4.203-6.455zM84.737 121.251a7.06 7.06 0 0 1 4.204-6.453 7.053 7.053 0 0 0-2.868-.617 7.071 7.071 0 1 0 0 14.142 7.07 7.07 0 0 0 2.868-.617c-2.476-1.104-4.204-3.574-4.204-6.455z"/><g><path fill="#161616" d="M136.038 300.471c-.91 0-1.821-.272-2.607-.823-31.428-22.055-50.191-58.048-50.191-96.28 0-34.129 14.878-66.554 40.82-88.963a4.536 4.536 0 0 1 5.65-.224l3.752 2.74c16.038 11.689 31.186 22.73 33.278 36.188.882 5.67-.66 11.258-4.582 16.605-28.508 38.857-20.103 52.861-11.203 67.686l.001.003c8.545 14.259 8.128 44.735-11.963 61.974a4.531 4.531 0 0 1-2.955 1.094zm-8.728-176.804c-22.284 20.562-34.996 49.407-34.996 79.701 0 34.049 16.135 66.177 43.342 86.677 13.479-14.152 13.722-37.619 7.514-47.979-11.564-19.264-18.045-37.221 11.669-77.719 2.477-3.378 3.436-6.599 2.932-9.846-1.512-9.735-15.821-20.162-29.656-30.247l-.805-.587zM258.426 305.106a4.536 4.536 0 0 1-4.536-4.63l.041-1.984c.405-19.063.725-34.12-11.511-56.299-2.319-4.205-5.168-8.212-7.924-12.087-11.948-16.803-24.303-34.176 7.502-65.18 3.441-3.357 5.821-8.461 7.069-15.166a4.533 4.533 0 0 1 5.291-3.631 4.537 4.537 0 0 1 3.631 5.291c-1.597 8.582-4.846 15.312-9.656 20.004-26.241 25.581-17.936 37.26-6.441 53.423 2.904 4.083 5.905 8.304 8.475 12.962 11.899 21.569 12.96 37.337 12.756 54.317 28.733-20.224 46.27-53.51 46.27-88.757 0-38.477-19.934-73.297-52.595-92.9 1.021 6.506 1.691 12.214 2.065 17.534a4.537 4.537 0 0 1-4.207 4.845c-2.517.191-4.669-1.709-4.845-4.207-.52-7.364-1.641-15.568-3.532-25.817a4.532 4.532 0 0 1 1.725-4.441 4.542 4.542 0 0 1 4.746-.451c40.535 20.005 65.717 60.407 65.717 105.437 0 41.215-22.119 79.955-57.724 101.101a4.543 4.543 0 0 1-2.317.636z"/><path fill="#161616" d="M200.86 320.959a117.33 117.33 0 0 1-28.875-3.616 4.537 4.537 0 0 1-3.279-5.515 4.533 4.533 0 0 1 5.515-3.279 108.25 108.25 0 0 0 26.639 3.335c19.348 0 38.452-5.27 55.25-15.242 32.866-19.509 53.283-55.258 53.283-93.295 0-41.546-23.243-78.827-60.659-97.293-15.128-7.462-31.237-11.246-47.874-11.246-25.959 0-51.128 9.394-70.869 26.45-23.944 20.686-37.676 50.606-37.676 82.09 0 35.284 17.32 68.504 46.331 88.86a109.81 109.81 0 0 0 15.438 9.023 4.538 4.538 0 0 1-3.932 8.18 119.118 119.118 0 0 1-16.717-9.772c-31.432-22.057-50.194-58.052-50.194-96.291 0-34.123 14.878-66.545 40.82-88.956 21.388-18.479 48.663-28.658 76.8-28.658 18.042 0 35.501 4.099 51.89 12.183 40.538 20.007 65.718 60.407 65.718 105.431 0 41.224-22.119 79.963-57.726 101.099-18.2 10.802-38.906 16.512-59.883 16.512zM106.497 109.82c-8.486 0-15.388-6.904-15.388-15.389s6.902-15.389 15.388-15.389c8.487 0 15.391 6.904 15.391 15.389s-6.904 15.389-15.391 15.389zm0-21.704c-3.481 0-6.313 2.833-6.313 6.314s2.832 6.314 6.313 6.314c3.483 0 6.316-2.833 6.316-6.314s-2.833-6.314-6.316-6.314zM86.073 132.859c-6.402 0-11.61-5.208-11.61-11.608s5.208-11.608 11.61-11.608c6.4 0 11.607 5.208 11.607 11.608-.001 6.4-5.207 11.608-11.607 11.608zm0-14.142a2.537 2.537 0 0 0-2.535 2.533 2.537 2.537 0 0 0 2.535 2.533 2.535 2.535 0 0 0 2.532-2.533 2.537 2.537 0 0 0-2.532-2.533zM313.93 294.399c-6.402 0-11.61-5.208-11.61-11.608s5.208-11.608 11.61-11.608c6.4 0 11.607 5.208 11.607 11.608s-5.207 11.608-11.607 11.608zm0-14.142a2.537 2.537 0 0 0-2.535 2.533 2.537 2.537 0 0 0 2.535 2.533 2.535 2.535 0 0 0 2.532-2.533 2.535 2.535 0 0 0-2.532-2.533z"/></g></svg>
